<?xml version="1.0" encoding="UTF-8"?>
<svg width="603px" height="285px" viewBox="0 0 603 285" version="1.1" xmlns="http://www.w3.org/2000/svg" xmlns:xlink="http://www.w3.org/1999/xlink">
    <!-- Generator: Sketch 50.2 (55047) - http://www.bohemiancoding.com/sketch -->
    <title>img_amazon</title>
    <desc>Created with Sketch.</desc>
    <defs></defs>
    <g id="Page-1" stroke="none" stroke-width="1" fill="none" fill-rule="evenodd">
        <g id="img_amazon">
            <rect id="Rectangle" fill="#FFFFFF" x="0" y="0" width="603" height="285"></rect>
            <path d="M374.00642,232.18404 C339.00694,257.98143 288.27733,271.74527 244.60008,271.74527 C183.35753,271.74527 128.22352,249.09392 86.51251,211.42031 C83.23541,208.45779 86.17168,204.42041 90.10422,206.72748 C135.11853,232.91812 190.77691,248.67445 248.27045,248.67445 C287.045139,248.67445 329.69995,240.65208 368.92035,224.00439 C374.84536,221.48756 379.80034,227.88448 374.00642,232.18404" id="path8" fill="#FF9900" fill-rule="nonzero"></path>
            <path d="M388.55678,215.53635 C384.0999,209.82108 358.98417,212.83602 347.71093,214.17308 C344.27651,214.59255 343.75219,211.60383 346.84576,209.45403 C366.84922,195.37559 399.67272,199.4392 403.50038,204.15823 C407.32802,208.90349 402.50414,241.80564 383.70665,257.50951 C380.8228,259.92146 378.07003,258.63685 379.35467,255.43838 C383.57557,244.89921 393.03986,221.27784 388.55678,215.53635" id="path10" fill="#FF9900" fill-rule="nonzero"></path>
            <path d="M348.49744,110.06598 L348.49744,96.38079 C348.49744,94.30966 350.07045,92.92017 351.95806,92.92017 L413.22681,92.92017 C415.19309,92.92017 416.7661,94.33588 416.7661,96.38079 L416.7661,108.09972 C416.7399,110.06598 415.08822,112.63523 412.15192,116.69884 L380.40333,162.02777 C392.20092,161.7394 404.65392,163.49591 415.35039,169.52579 C417.76234,170.88906 418.41776,172.88154 418.60128,174.84782 L418.60128,189.4506 C418.60128,191.44308 416.39906,193.77636 414.09198,192.5704 C395.24206,182.68664 370.20498,181.61175 349.36259,192.67527 C347.23903,193.82881 345.0106,191.52173 345.0106,189.52925 L345.0106,175.66054 C345.0106,173.43211 345.0368,169.63065 347.26523,166.24868 L384.04747,113.50039 L352.03671,113.50039 C350.07045,113.50039 348.49744,112.11091 348.49744,110.06598" id="path12" fill="#221F1F" fill-rule="nonzero"></path>
            <path d="M124.99883,195.45424 L106.35866,195.45424 C104.57593,195.32317 103.16021,193.98611 103.02912,192.282 L103.02912,96.61676 C103.02912,94.70293 104.62835,93.18234 106.62083,93.18234 L124.00259,93.18234 C125.81157,93.26094 127.25348,94.65048 127.38458,96.38079 L127.38458,108.88624 L127.7254,108.88624 C132.26091,96.80026 140.78137,91.16364 152.26436,91.16364 C163.93085,91.16364 171.21913,96.80026 176.4625,108.88624 C180.9718,96.80026 191.22258,91.16364 202.20745,91.16364 C210.02007,91.16364 218.56676,94.38831 223.78391,101.62416 C229.6827,109.67273 228.47672,121.36544 228.47672,131.61624 L228.45052,191.99363 C228.45052,193.90746 226.85129,195.45424 224.85881,195.45424 L206.24484,195.45424 C204.38346,195.32317 202.8891,193.82881 202.8891,191.99363 L202.8891,141.29025 C202.8891,137.25286 203.25612,127.18559 202.36476,123.35792 C200.97527,116.93481 196.80679,115.12583 191.40611,115.12583 C186.89681,115.12583 182.17778,118.14077 180.26395,122.96468 C178.35012,127.78858 178.53364,135.86335 178.53364,141.29025 L178.53364,191.99363 C178.53364,193.90746 176.93441,195.45424 174.94193,195.45424 L156.32798,195.45424 C154.44037,195.32317 152.97222,193.82881 152.97222,191.99363 L152.946,141.29025 C152.946,130.62 154.70251,114.9161 141.46302,114.9161 C128.0662,114.9161 128.59054,130.22673 128.59054,141.29025 L128.59054,191.99363 C128.59054,193.90746 126.99131,195.45424 124.99883,195.45424" id="path14" fill="#221F1F" fill-rule="nonzero"></path>
            <path d="M469.51439,91.16364 C497.17316,91.16364 512.14297,114.9161 512.14297,145.11791 C512.14297,174.29725 495.60013,197.44672 469.51439,197.44672 C442.35373,197.44672 427.56742,173.69426 427.56742,144.09545 C427.56742,114.31311 442.53725,91.16364 469.51439,91.16364 M469.67168,110.6952 C455.93407,110.6952 455.0689,129.41401 455.0689,141.08052 C455.0689,152.77323 454.88538,177.73166 469.51439,177.73166 C483.95987,177.73166 484.64151,157.59714 484.64151,145.32763 C484.64151,137.25286 484.30069,127.60506 481.86251,119.94973 C479.76516,113.29067 475.5967,110.6952 469.67168,110.6952" id="path16" fill="#221F1F" fill-rule="nonzero"></path>
            <path d="M548.00762,195.45424 L529.4461,195.45424 C527.58469,195.32317 526.09033,193.82881 526.09033,191.99363 L526.06413,96.30214 C526.22143,94.54561 527.76823,93.18234 529.65584,93.18234 L546.93275,93.18234 C548.55818,93.26094 549.89524,94.3621 550.26229,95.85646 L550.26229,110.48545 L550.60309,110.48545 C555.82026,97.40325 563.13474,91.16364 576.00721,91.16364 C584.37038,91.16364 592.52383,94.17858 597.7672,102.43688 C602.64353,110.0922 602.64353,122.96468 602.64353,132.21921 L602.64353,192.43932 C602.4338,194.11718 600.887,195.45424 599.05184,195.45424 L580.35922,195.45424 C578.65511,195.32317 577.2394,194.06476 577.0559,192.43932 L577.0559,140.47753 C577.0559,130.01701 578.26187,114.70636 565.38939,114.70636 C560.85389,114.70636 556.6854,117.74753 554.61427,122.36168 C551.9926,128.20805 551.65178,134.02819 551.65178,140.47753 L551.65178,191.99363 C551.62558,193.90746 550.00012,195.45424 548.00764,195.45424" id="path18" fill="#221F1F" fill-rule="nonzero"></path>
            <g id="use28" transform="translate(244.367190, 90.000000)" fill="#221F1F" fill-rule="nonzero">
                <path d="M55.288261,59.75829 L55.288261,55.7209 C41.81279,55.7209 27.57705,58.60475 27.57705,74.49215 C27.57705,82.54072 31.74552,87.99384 38.90272,87.99384 C44.14609,87.99384 48.8389,84.76917 51.80142,79.52579 C55.471761,73.07644 55.288261,67.02035 55.288261,59.75829 M74.085731,105.19207 C72.853541,106.29318 71.070781,106.37183 69.681291,105.63777 C63.494131,100.49927 62.393011,98.11354 58.984821,93.21099 C48.76025,103.64529 41.52442,106.76508 28.25868,106.76508 C12.581,106.76508 0.36397,97.09107 0.36397,77.71684 C0.36397,62.58971 8.56984,52.28649 20.23633,47.25286 C30.35603,42.79598 44.48691,42.00949 55.288261,40.7773 L55.288261,38.36535 C55.288261,33.93469 55.629081,28.69132 53.033611,24.86368 C50.75273,21.42926 46.40075,20.01355 42.57308,20.01355 C35.46833,20.01355 29.12384,23.65769 27.57705,31.20814 C27.26244,32.88603 26.03025,34.53769 24.35238,34.61634 L6.26276,32.67628 C4.74218,32.33548 3.0643,31.10327 3.48377,28.76999 C7.65225,6.85271 27.44596,0.24605 45.16856,0.24605 C54.239571,0.24605 66.089581,2.658 73.246781,9.52681 C82.317821,17.99485 81.452651,29.29431 81.452651,41.59002 L81.452651,70.63828 C81.452651,79.3685 85.070591,83.19614 88.478781,87.91519 C89.684751,89.59305 89.946921,91.61175 88.426341,92.87016 C84.624901,96.04241 77.860961,101.9412 74.138151,105.24452 L74.085731,105.19202" id="path30"></path>
            </g>
            <path d="M55.288261,149.75829 L55.288261,145.7209 C41.81279,145.7209 27.57705,148.60475 27.57705,164.49215 C27.57705,172.54072 31.74552,177.99384 38.90272,177.99384 C44.14609,177.99384 48.8389,174.76917 51.80142,169.52579 C55.471761,163.07644 55.288261,157.02035 55.288261,149.75829 M74.085731,195.19207 C72.853541,196.29318 71.070781,196.37183 69.681291,195.63777 C63.494131,190.49927 62.393011,188.11354 58.984821,183.21099 C48.76025,193.64529 41.52442,196.76508 28.25868,196.76508 C12.581,196.76508 0.36397,187.09107 0.36397,167.71684 C0.36397,152.58971 8.56984,142.28649 20.23633,137.25286 C30.35603,132.79598 44.48691,132.00949 55.288261,130.7773 L55.288261,128.36535 C55.288261,123.93469 55.629081,118.69132 53.033611,114.86368 C50.75273,111.42926 46.40075,110.01355 42.57308,110.01355 C35.46833,110.01355 29.12384,113.65769 27.57705,121.20814 C27.26244,122.88603 26.03025,124.53769 24.35238,124.61634 L6.26276,122.67628 C4.74218,122.33548 3.0643,121.10327 3.48377,118.76999 C7.65225,96.85271 27.44596,90.24605 45.16856,90.24605 C54.239571,90.24605 66.089581,92.658 73.246781,99.52681 C82.317821,107.99485 81.452651,119.29431 81.452651,131.59002 L81.452651,160.63828 C81.452651,169.3685 85.070591,173.19614 88.478781,177.91519 C89.684751,179.59305 89.946921,181.61175 88.426341,182.87016 C84.624901,186.04241 77.860961,191.9412 74.138151,195.24452 L74.085731,195.19202" id="path30" fill="#221F1F" fill-rule="nonzero"></path>
        </g>
    </g>
</svg>