<svg id="Layer_1" data-name="Layer 1" xmlns="http://www.w3.org/2000/svg" viewBox="0 0 474.94 284.4">
  <defs>
    <style>
      .cls-1 {
        fill: #c5164a;
      }

      .cls-2 {
        fill: #21201f;
      }

      .cls-3 {
        fill: #e21f26;
      }

      .cls-4 {
        fill: #01b4c0;
      }

      .cls-5 {
        fill: #f1b4b1;
      }

      .cls-6 {
        fill: #c5e4ea;
      }

      .cls-7 {
        fill: #336080;
      }

      .cls-8 {
        fill: #336081;
      }

      .cls-9 {
        fill: #003c57;
      }

      .cls-10 {
        fill: #e6e460;
      }

      .cls-11 {
        fill: #dcddde;
      }

      .cls-12 {
        fill: #aac6cc;
      }

      .cls-13 {
        fill: #1a97a4;
      }
    </style>
  </defs>
  <title>zola-logo-black</title>
  <path class="cls-1" d="M234.9,7.3l-.2-.2h0A.22.22,0,0,0,234.9,7.3Z" transform="translate(0 0.3)"/>
  <path class="cls-2" d="M85.9,202.2v9.9a3.74,3.74,0,0,1-3.9,3.7l-75.3-.1A3.65,3.65,0,0,1,3,211.9V200.6a3.58,3.58,0,0,1,1.1-2.5l53.8-60H3.7A3.63,3.63,0,0,1,0,134.4l.1-10.2a3.65,3.65,0,0,1,3.8-3.7l75.2.1a3.65,3.65,0,0,1,3.7,3.8v10.7a4.45,4.45,0,0,1-1,2.9L28.1,198.3h54a4,4,0,0,1,3.8,3.9" transform="translate(0 0.3)"/>
  <path class="cls-2" d="M176.1,217.1a49,49,0,1,1,49.4-48.6,49,49,0,0,1-49.4,48.6m.6-79.6A30.55,30.55,0,1,0,207,168.3a30.58,30.58,0,0,0-30.3-30.8" transform="translate(0 0.3)"/>
  <path class="cls-2" d="M336.4,200.7v12.7a2.87,2.87,0,0,1-3.2,2.5H280.6a2.48,2.48,0,0,1-2.5-2.5V123.2c0-1.4,1.8-2.5,3.2-2.5h12.8a2.48,2.48,0,0,1,2.5,2.5v75h36.9a2.77,2.77,0,0,1,2.9,2.5" transform="translate(0 0.3)"/>
  <path class="cls-2" d="M472.2,215.9H458.5a2.8,2.8,0,0,1-2.5-1.6l-8.2-19.2H403.2l-8.6,19.3a2.64,2.64,0,0,1-2.5,1.6H378.2a2.77,2.77,0,0,1-2.5-3.9l40.9-89.6a2.68,2.68,0,0,1,2.3-1.7h14.3a2.56,2.56,0,0,1,2.3,1.8l39.2,89.5a2.7,2.7,0,0,1-2.5,3.8M440,177.4,425.8,145l-14.7,32.4Z" transform="translate(0 0.3)"/>
  <path class="cls-3" d="M194.4,74.2Z" transform="translate(0 0.3)"/>
  <path class="cls-4" d="M234.7,47.1c-.3-.4-.6-.7-.9-1.1l-.2-.2a5.72,5.72,0,0,0-.7-.8c-.1-.1-.2-.2-.2-.3-.2-.3-.4-.5-.6-.8-.1-.1-.1-.2-.2-.3-.2-.3-.5-.7-.7-1v-.1c-.2-.4-.5-.7-.7-1.1-.1-.1-.1-.2-.2-.3-.2-.3-.3-.5-.5-.8-.1-.1-.1-.3-.2-.4-.1-.3-.3-.5-.4-.8-.1-.1-.1-.2-.2-.3-.2-.4-.4-.7-.6-1.1a11.73,11.73,0,0,0-.5-1.1c-.1-.1-.1-.2-.1-.4s-.2-.5-.3-.8c0-.1-.1-.3-.1-.4a2.35,2.35,0,0,1-.2-.8c0-.1-.1-.3-.1-.4-.1-.3-.2-.6-.3-1,0-.1,0-.1-.1-.2a5,5,0,0,1-.2-1.2.6.6,0,0,0-.1-.4c0-.3-.1-.5-.1-.8a.9.9,0,0,0-.1-.5c0-.2-.1-.5-.1-.7V24.6a2,2,0,0,1,.1-.7.9.9,0,0,1,.1-.5c0-.2.1-.4.1-.7a.9.9,0,0,1,.1-.5c.1-.4.1-.7.2-1.1,0-.2.1-.3.1-.5s.1-.4.1-.6a1.42,1.42,0,0,1,.2-.6c.1-.2.1-.4.2-.5s.1-.4.2-.6.1-.3.2-.5.1-.4.2-.6.1-.3.2-.5c.2-.4.3-.7.5-1.1.1-.1.1-.3.2-.4l.3-.6c.1-.1.1-.3.2-.4l.3-.6c.1-.1.1-.3.2-.4a2.09,2.09,0,0,1,.4-.6c.1-.1.1-.2.2-.3.3-.4.6-.9.9-1.3,0-.1.1-.1.1-.2a2.65,2.65,0,0,1,.5-.6c.1-.1.2-.2.2-.3.2-.2.3-.4.5-.6l.3-.3c.2-.2.3-.4.5-.6l.2-.2,1.3-1.3A27.7,27.7,0,0,0,228,2.3a15.39,15.39,0,0,0-1.9-.8,27.71,27.71,0,0,0-9.7-1.8h-.1a26.26,26.26,0,0,0-21.8,11.5,20.83,20.83,0,0,1,2,3.6c2.9,6.1,3.9,13.8,3.8,21.6h0c0,18.4-5.8,37.3-5.9,37.5.2-.1,2.4-1,5.9-2.7a147.06,147.06,0,0,0,25.6-16,51.92,51.92,0,0,0,8.8-8.1Z" transform="translate(0 0.3)"/>
  <path class="cls-5" d="M275,74.2Z" transform="translate(0 0.3)"/>
  <path class="cls-6" d="M272.9,15a30.65,30.65,0,0,1,2-3.6A24.86,24.86,0,0,0,269,5.2a26.81,26.81,0,0,0-25.5-3.4,15.38,15.38,0,0,0-1.9.8,27.7,27.7,0,0,0-6.9,4.6h0l.2.2A11.41,11.41,0,0,1,236,8.5l.3.3.5.5a1.38,1.38,0,0,1,.3.4c.2.2.3.4.4.5a1.38,1.38,0,0,1,.3.4c.1.2.3.4.4.6s.1.2.2.3c.3.4.5.7.8,1.1a.52.52,0,0,1,.2.4l.3.6a.76.76,0,0,1,.2.4l.3.6a.76.76,0,0,1,.2.4l.3.6c.1.2.1.3.2.5s.3.7.4,1a1.69,1.69,0,0,1,.2.5c.1.2.1.4.2.6s.1.4.2.5.1.4.2.6.1.4.2.6.1.4.2.5.1.4.2.6.1.3.1.5c.1.4.1.7.2,1.1a.9.9,0,0,0,.1.5c0,.2.1.5.1.7a.9.9,0,0,0,.1.5,1.7,1.7,0,0,0,.1.7v4.3a2.2,2.2,0,0,1-.1.8.6.6,0,0,1-.1.4c0,.3-.1.5-.1.8a.76.76,0,0,1-.1.4,5,5,0,0,0-.2,1.2v.2c-.1.3-.2.7-.3,1,0,.1-.1.3-.1.4-.1.3-.2.5-.3.8,0,.1-.1.3-.1.4-.1.3-.2.5-.3.8,0,.1-.1.2-.1.4a11.73,11.73,0,0,1-.5,1.1c-.2.4-.4.7-.6,1.1-.1.1-.1.2-.2.4s-.3.5-.4.8c-.1.1-.1.3-.2.4-.2.3-.3.5-.5.8-.1.1-.1.2-.2.3-.2.4-.5.7-.7,1.1V43c-.2.3-.5.7-.7,1-.1.1-.1.2-.2.3-.2.3-.4.5-.6.8-.1.1-.1.2-.2.3-.2.3-.5.6-.7.9,0,.1-.1.1-.1.2-.3.4-.6.7-.9,1.1h0a77.54,77.54,0,0,0,8.8,8.3,141.2,141.2,0,0,0,25.6,16,54.11,54.11,0,0,0,5.9,2.7C274.8,73.9,263.2,35.8,272.9,15Z" transform="translate(0 0.3)"/>
  <path class="cls-7" d="M194.4,74.2Z" transform="translate(0 0.3)"/>
  <path class="cls-8" d="M188.5,36.7c0-7.8,1-15.5,3.8-21.6a30.65,30.65,0,0,1,2-3.6,24.86,24.86,0,0,0-5.9-6.2,26.82,26.82,0,0,0-27.5-2.7c-13.4,6.3-19.4,22-13.2,35.2,7.3,15.6,29.9,28.4,40.7,33.7a54.11,54.11,0,0,0,5.9,2.7c0-.2-5.7-19.1-5.8-37.5Z" transform="translate(0 0.3)"/>
  <path class="cls-9" d="M200.3,36.6c0-7.8-1-15.4-3.8-21.6a30.65,30.65,0,0,0-2-3.6,20.83,20.83,0,0,0-2,3.6c-2.9,6.2-3.9,13.9-3.8,21.6v.1c.1,18.4,5.8,37.2,5.9,37.4h0c-.1-.1,5.6-19,5.7-37.5Z" transform="translate(0 0.3)"/>
  <path class="cls-10" d="M274.9,74.2Z" transform="translate(0 0.3)"/>
  <path class="cls-11" d="M308.3,2.6A26.81,26.81,0,0,0,296.7,0h-.1a26.26,26.26,0,0,0-21.8,11.5,20.84,20.84,0,0,1,2,3.6c2.9,6.1,3.9,13.7,3.8,21.5v.3c.1,18.3-5.6,37.1-5.6,37.3.2-.1,2.4-1,5.9-2.7,10.8-5.4,33.5-18.1,40.7-33.7A26.58,26.58,0,0,0,308.3,2.6Z" transform="translate(0 0.3)"/>
  <path class="cls-12" d="M280.8,36.5c0-7.7-1-15.4-3.8-21.5a30.65,30.65,0,0,0-2-3.6,20.84,20.84,0,0,0-2,3.6c-9.7,20.7,1.9,58.8,2,59.2h0c.1-.2,5.8-19,5.9-37.4v-.3Z" transform="translate(0 0.3)"/>
  <path class="cls-13" d="M233.4,8.4l-.2.2c-.2.2-.3.4-.5.6l-.3.3c-.2.2-.3.4-.5.6s-.2.2-.2.3c-.2.2-.3.4-.5.6,0,.1-.1.1-.1.2-.3.4-.6.9-.9,1.3-.1.1-.1.2-.2.3a2.09,2.09,0,0,1-.4.6.76.76,0,0,0-.2.4l-.3.6c-.1.1-.1.3-.2.4l-.3.6c-.1.1-.1.3-.2.4-.2.4-.3.7-.5,1.1-.1.2-.1.3-.2.5s-.1.4-.2.6-.1.3-.2.5-.1.4-.2.6-.1.4-.2.5-.1.4-.2.6a1.27,1.27,0,0,0-.1.6c0,.2-.1.3-.1.5-.1.4-.1.7-.2,1.1,0,.2-.1.3-.1.5s-.1.4-.1.7a.9.9,0,0,1-.1.5,2,2,0,0,1-.1.7v4.4a1.7,1.7,0,0,0,.1.7.9.9,0,0,0,.1.5c0,.3.1.5.1.8a.6.6,0,0,0,.1.4,5,5,0,0,1,.2,1.2c0,.1,0,.1.1.2.1.3.2.6.3,1,0,.1.1.3.1.4a2.35,2.35,0,0,1,.2.8c0,.1.1.3.1.4.1.3.2.5.3.8,0,.1.1.2.1.4a11.73,11.73,0,0,0,.5,1.1c.2.4.4.7.6,1.1.1.1.1.2.2.3.1.3.3.5.4.8.1.1.1.3.2.4.2.3.3.5.5.8.1.1.1.2.2.3.2.4.5.7.7,1.1v.1c.2.3.5.7.7,1,.1.1.1.2.2.3.2.3.4.5.6.8.1.1.2.2.2.3a5.72,5.72,0,0,0,.7.8l.2.2c.3.4.6.7.9,1.1h0c.3-.4.6-.7.9-1.1,0-.1.1-.1.1-.2.2-.3.5-.6.7-.9.1-.1.1-.2.2-.3.2-.3.4-.5.6-.8.1-.1.1-.2.2-.3.2-.3.5-.7.7-1v-.1c.2-.4.5-.7.7-1.1.1-.1.1-.2.2-.3.2-.3.3-.5.5-.8.1-.1.1-.3.2-.4.1-.3.3-.5.4-.8.1-.1.1-.2.2-.4.2-.4.4-.7.6-1.1a11.73,11.73,0,0,1,.5-1.1c0-.1.1-.2.1-.4s.2-.5.3-.8c0-.1.1-.3.1-.4.1-.3.2-.5.3-.8,0-.1.1-.3.1-.4.1-.3.2-.7.3-1v-.2a5,5,0,0,0,.2-1.2.76.76,0,0,1,.1-.4c0-.3.1-.5.1-.8a.6.6,0,0,1,.1-.4c0-.3.1-.5.1-.8V24.7a1.7,1.7,0,0,0-.1-.7.9.9,0,0,0-.1-.5c0-.2-.1-.5-.1-.7a.9.9,0,0,0-.1-.5c-.1-.4-.1-.7-.2-1.1,0-.2-.1-.3-.1-.5s-.1-.4-.2-.6a.76.76,0,0,0-.2-.5c-.1-.2-.1-.4-.2-.6s-.1-.4-.2-.6-.1-.4-.2-.5-.1-.4-.2-.6-.1-.4-.2-.5c-.1-.3-.3-.7-.4-1s-.1-.3-.2-.5l-.3-.6a.76.76,0,0,1-.2-.4l-.3-.6a.76.76,0,0,1-.2-.4l-.3-.6a.52.52,0,0,1-.2-.4,4.44,4.44,0,0,0-.8-1.1c-.1-.1-.1-.2-.2-.3s-.3-.4-.4-.6a1.38,1.38,0,0,1-.3-.4,2.18,2.18,0,0,0-.4-.5,1.38,1.38,0,0,1-.3-.4c-.2-.2-.3-.4-.5-.5l-.3-.3a11.41,11.41,0,0,0-1.1-1.1l-.2-.2A2.9,2.9,0,0,1,233.4,8.4Z" transform="translate(0 0.3)"/>
  <g>
    <path class="cls-2" d="M254,282.6a.89.89,0,0,1-.7,1.4h-2.7a.91.91,0,0,1-.7-.3l-3.4-4.6h-4.8v4.3a.47.47,0,0,1-.5.5h-2.8a.47.47,0,0,1-.5-.5v-20a.47.47,0,0,1,.5-.5h7.9a8.82,8.82,0,0,1,5.8,2.1,7.83,7.83,0,0,1,2.3,6,8.14,8.14,0,0,1-2.3,6,13.45,13.45,0,0,1-1.4,1.1Zm-12.3-7.5h4.7a3.67,3.67,0,0,0,3.9-4.2,3.68,3.68,0,0,0-4-4.2h-4.7v8.4Z" transform="translate(0 0.3)"/>
    <path class="cls-2" d="M275.8,266.7v4.6h8.3a.47.47,0,0,1,.5.5v2.8a.47.47,0,0,1-.5.5h-8.3v4.8h10.7a.47.47,0,0,1,.5.5v2.8a.47.47,0,0,1-.5.5H272.4a.47.47,0,0,1-.5-.5v-20a.47.47,0,0,1,.5-.5h14a.47.47,0,0,1,.5.5V266a.47.47,0,0,1-.5.5H275.8Z" transform="translate(0 0.3)"/>
    <path class="cls-2" d="M320.7,273v7h0v3.1c0,.5-.2.8-.5.8h-2.8c-.3,0-.5-.3-.5-.7a10,10,0,0,1-4.3.9,10.7,10.7,0,0,1-10.7-12,10.85,10.85,0,0,1,9.7-9.5,11,11,0,0,1,8.6,3,1.09,1.09,0,0,1,0,1.5,15.93,15.93,0,0,0-1.3,1.3,1.09,1.09,0,0,1-1.5,0,6.65,6.65,0,0,0-4.7-1.9,6.82,6.82,0,0,0-6.8,7.7,6.9,6.9,0,0,0,5.9,6,6.69,6.69,0,0,0,5.2-1.4v-2.3h-4.4a.47.47,0,0,1-.5-.5v-3a.47.47,0,0,1,.5-.5h7.7A.46.46,0,0,1,320.7,273Z" transform="translate(0 0.3)"/>
    <path class="cls-2" d="M342.4,283.9h-2.8a.47.47,0,0,1-.5-.5v-20a.47.47,0,0,1,.5-.5h2.8a.47.47,0,0,1,.5.5v20C343,283.7,342.8,283.9,342.4,283.9Z" transform="translate(0 0.3)"/>
    <path class="cls-2" d="M366,267.9a1.56,1.56,0,0,0-.1,1.7c.3.8,1.6,1.3,2.7,1.6l1.6.5h.2c1.8.5,4.2,1.5,5.2,3.9a5.58,5.58,0,0,1-.6,5.6,8.13,8.13,0,0,1-6.4,2.7,7.57,7.57,0,0,1-1.5-.1,7.28,7.28,0,0,1-5.4-3.3.78.78,0,0,1,.4-1.2l2.1-.8a1,1,0,0,1,1,.3,3.43,3.43,0,0,0,2.5,1.2c1.7.2,3.5-.2,4.2-1.1a1.56,1.56,0,0,0,.1-1.7c-.3-.8-1.6-1.3-2.7-1.6l-1.6-.4h-.1c-1.8-.5-4.4-1.5-5.4-4a5.58,5.58,0,0,1,.6-5.6c1.6-2,4.7-3,7.8-2.6a7.58,7.58,0,0,1,5.4,3.3.8.8,0,0,1-.4,1.2l-2.2.9a.81.81,0,0,1-.9-.3,4.06,4.06,0,0,0-2.5-1.3A4.42,4.42,0,0,0,366,267.9Z" transform="translate(0 0.3)"/>
    <path class="cls-2" d="M408,263.5v2.8a.47.47,0,0,1-.5.5h-6.1v16.6a.47.47,0,0,1-.5.5h-2.8a.47.47,0,0,1-.5-.5V266.8h-6.1a.47.47,0,0,1-.5-.5v-2.8a.47.47,0,0,1,.5-.5h16C407.8,262.9,408,263.2,408,263.5Z" transform="translate(0 0.3)"/>
    <path class="cls-2" d="M440.5,282.6a.89.89,0,0,1-.7,1.4h-2.7a.91.91,0,0,1-.7-.3L433,279h-4.8v4.3a.47.47,0,0,1-.5.5h-2.8a.47.47,0,0,1-.5-.5v-20a.47.47,0,0,1,.5-.5h7.9a8.82,8.82,0,0,1,5.8,2.1,7.83,7.83,0,0,1,2.3,6,8.14,8.14,0,0,1-2.3,6,13.45,13.45,0,0,1-1.4,1.1Zm-12.3-7.5h4.7a3.67,3.67,0,0,0,3.9-4.2,3.68,3.68,0,0,0-4-4.2h-4.7v8.4Z" transform="translate(0 0.3)"/>
    <path class="cls-2" d="M474.5,264.2l-8,11.9-.4.6v6.8c0,.3-.2.5-.6.5h-2.8a.47.47,0,0,1-.5-.5v-6.8l-.4-.6-8-11.9a.83.83,0,0,1,.7-1.3h2.7a.75.75,0,0,1,.7.4l6.2,9.3,6.2-9.3a1,1,0,0,1,.7-.4h2.7A.84.84,0,0,1,474.5,264.2Z" transform="translate(0 0.3)"/>
    <path class="cls-2" d="M30.6,263.9h0l-4.4,13.4-2,6a.75.75,0,0,1-.7.5H20.8a.75.75,0,0,1-.7-.5l-4.9-14.9-1.9,5.8-2.9,9a.75.75,0,0,1-.7.5H7.2a.75.75,0,0,1-.7-.5L4.7,278,.1,264a.78.78,0,0,1,.7-1H3.4a.75.75,0,0,1,.7.5h0L6,269.2l1.9,5.7.7,2L13,263.4a.75.75,0,0,1,.7-.5h3.6a.75.75,0,0,1,.7.5l4.4,13.5.7-2h0l3.7-11.5a.75.75,0,0,1,.7-.5h2.7A1.05,1.05,0,0,1,30.6,263.9Z" transform="translate(0 0.3)"/>
    <path class="cls-2" d="M47.1,266.8v4.6h8.2a.47.47,0,0,1,.5.5v2.8a.47.47,0,0,1-.5.5H47.1V280H57.8a.47.47,0,0,1,.5.5v2.8a.47.47,0,0,1-.5.5H43.7a.47.47,0,0,1-.5-.5V263.4a.47.47,0,0,1,.5-.5h14a.47.47,0,0,1,.5.5v2.8a.47.47,0,0,1-.5.5H47.1Z" transform="translate(0 0.3)"/>
    <path class="cls-2" d="M90.8,273.5a9.5,9.5,0,0,1-3.1,7.3c-3,2.6-7.6,3.1-10.8,3.1a9.72,9.72,0,0,1-1.8-.1H72.2a.47.47,0,0,1-.5-.5V263.4a.47.47,0,0,1,.5-.5h2.6c2.8-.2,9.1-.1,12.9,3.3A9.5,9.5,0,0,1,90.8,273.5Zm-3.9,0a5.58,5.58,0,0,0-1.8-4.4c-2.4-2.1-6.8-2.4-9.6-2.3V280c2.8.1,7.2-.1,9.6-2.2A5.24,5.24,0,0,0,86.9,273.5Z" transform="translate(0 0.3)"/>
    <path class="cls-2" d="M122,273.5a9.5,9.5,0,0,1-3.1,7.3c-3,2.6-7.6,3.1-10.8,3.1a9.72,9.72,0,0,1-1.8-.1h-2.9a.47.47,0,0,1-.5-.5V263.4a.47.47,0,0,1,.5-.5H106c2.8-.2,9.1-.1,12.9,3.3A9.5,9.5,0,0,1,122,273.5Zm-3.9,0a5.58,5.58,0,0,0-1.8-4.4c-2.4-2.1-6.8-2.4-9.6-2.3V280c2.8.1,7.2-.1,9.6-2.2A5.24,5.24,0,0,0,118.1,273.5Z" transform="translate(0 0.3)"/>
    <path class="cls-2" d="M138.6,283.9h-2.8a.47.47,0,0,1-.5-.5V263.5a.47.47,0,0,1,.5-.5h2.8a.47.47,0,0,1,.5.5v19.9A.47.47,0,0,1,138.6,283.9Z" transform="translate(0 0.3)"/>
    <path class="cls-2" d="M172.9,263.5v19.9a.47.47,0,0,1-.5.5h-2.9c-.1,0-.2-.1-.3-.1l-.1-.1-10-12.9v12.6a.47.47,0,0,1-.5.5h-2.8a.47.47,0,0,1-.5-.5V263.5a.47.47,0,0,1,.5-.5h2.8a.76.76,0,0,1,.4.2h0l10,13.3V263.6a.47.47,0,0,1,.5-.5h2.8C172.6,262.9,172.9,263.2,172.9,263.5Z" transform="translate(0 0.3)"/>
    <path class="cls-2" d="M204.2,273v7h0v3.1c0,.5-.2.8-.5.8h-2.8c-.3,0-.5-.3-.5-.7a9.9,9.9,0,0,1-4.2.9,10.78,10.78,0,0,1-1.1-21.5,10.66,10.66,0,0,1,8.5,3,1.09,1.09,0,0,1,0,1.5l-1.3,1.3a1.09,1.09,0,0,1-1.5,0,6.65,6.65,0,0,0-4.7-1.9,6.82,6.82,0,0,0-6.8,7.7,6.9,6.9,0,0,0,5.8,6,6.69,6.69,0,0,0,5.2-1.4v-2.3H196a.47.47,0,0,1-.5-.5v-3a.47.47,0,0,1,.5-.5h7.7A.54.54,0,0,1,204.2,273Z" transform="translate(0 0.3)"/>
  </g>
</svg>
