<?xml version="1.0" encoding="UTF-8"?>
<svg width="403px" height="403px" viewBox="0 0 403 403" version="1.1" xmlns="http://www.w3.org/2000/svg" xmlns:xlink="http://www.w3.org/1999/xlink">
    <!-- Generator: Sketch 50.2 (55047) - http://www.bohemiancoding.com/sketch -->
    <title>Artboard</title>
    <desc>Created with Sketch.</desc>
    <defs></defs>
    <g id="Artboard" stroke="none" stroke-width="1" fill="none" fill-rule="evenodd">
        <g id="Airbnb_Logo_BeÌlo" transform="translate(63.000000, 52.000000)" fill="#FFFFFF" fill-rule="nonzero">
            <path d="M275.5,213 C274,209.4 272.5,205.5 271,202.2 C268.6,196.8 266.2,191.7 264.1,186.9 L263.8,186.6 C243.1,141.6 220.9,96 197.5,51 L196.6,49.2 C194.2,44.7 191.8,39.9 189.4,35.1 C186.4,29.7 183.4,24 178.6,18.6 C169,6.6 155.2,0 140.5,0 C125.5,0 112,6.6 102.1,18 C97.6,23.4 94.3,29.1 91.3,34.5 C88.9,39.3 86.5,44.1 84.1,48.6 L83.2,50.4 C60.1,95.4 37.6,141 16.9,186 L16.6,186.6 C14.5,191.4 12.1,196.5 9.7,201.9 C8.2,205.2 6.7,208.8 5.2,212.7 C1.3,223.8 0.1,234.3 1.6,245.1 C4.9,267.6 19.9,286.5 40.6,294.9 C48.4,298.2 56.5,299.7 64.9,299.7 C67.3,299.7 70.3,299.4 72.7,299.1 C82.6,297.9 92.8,294.6 102.7,288.9 C115,282 126.7,272.1 139.9,257.7 C153.1,272.1 165.1,282 177.1,288.9 C187,294.6 197.2,297.9 207.1,299.1 C209.5,299.4 212.5,299.7 214.9,299.7 C223.3,299.7 231.7,298.2 239.2,294.9 C260.2,286.5 274.9,267.3 278.2,245.1 C280.6,234.6 279.4,224.1 275.5,213 Z M140.2,228.6 C124,208.2 113.5,189 109.9,172.8 C108.4,165.9 108.1,159.9 109,154.5 C109.6,149.7 111.4,145.5 113.8,141.9 C119.5,133.8 129.1,128.7 140.2,128.7 C151.3,128.7 161.2,133.5 166.6,141.9 C169,145.5 170.8,149.7 171.4,154.5 C172.3,159.9 172,166.2 170.5,172.8 C166.9,188.7 156.4,207.9 140.2,228.6 Z M259.9,242.7 C257.8,258.3 247.3,271.8 232.6,277.8 C225.4,280.8 217.6,281.7 209.8,280.8 C202.3,279.9 194.8,277.5 187,273 C176.2,267 165.4,257.7 152.8,243.9 C172.6,219.6 184.6,197.4 189.1,177.6 C191.2,168.3 191.5,159.9 190.6,152.1 C189.4,144.6 186.7,137.7 182.5,131.7 C173.2,118.2 157.6,110.4 140.2,110.4 C122.8,110.4 107.2,118.5 97.9,131.7 C93.7,137.7 91,144.6 89.8,152.1 C88.6,159.9 88.9,168.6 91.3,177.6 C95.8,197.4 108.1,219.9 127.6,244.2 C115.3,258 104.2,267.3 93.4,273.3 C85.6,277.8 78.1,280.2 70.6,281.1 C62.5,282 54.7,280.8 47.8,278.1 C33.1,272.1 22.6,258.6 20.5,243 C19.6,235.5 20.2,228 23.2,219.6 C24.1,216.6 25.6,213.6 27.1,210 C29.2,205.2 31.6,200.1 34,195 L34.3,194.4 C55,149.7 77.2,104.1 100.3,59.7 L101.2,57.9 C103.6,53.4 106,48.6 108.4,44.1 C110.8,39.3 113.5,34.8 116.8,30.9 C123.1,23.7 131.5,19.8 140.8,19.8 C150.1,19.8 158.5,23.7 164.8,30.9 C168.1,34.8 170.8,39.3 173.2,44.1 C175.6,48.6 178,53.4 180.4,57.9 L181.3,59.7 C204.1,104.4 226.3,150 247,194.7 L247,195 C249.4,199.8 251.5,205.2 253.9,210 C255.4,213.6 256.9,216.6 257.8,219.6 C260.2,227.4 261.1,234.9 259.9,242.7 Z" id="Shape"></path>
        </g>
    </g>
</svg>