<?xml version="1.0" encoding="UTF-8"?>
<svg width="603px" height="285px" viewBox="0 0 603 285" version="1.1" xmlns="http://www.w3.org/2000/svg" xmlns:xlink="http://www.w3.org/1999/xlink">
    <!-- Generator: Sketch 50.2 (55047) - http://www.bohemiancoding.com/sketch -->
    <title>Group 2</title>
    <desc>Created with Sketch.</desc>
    <defs></defs>
    <g id="Page-1" stroke="none" stroke-width="1" fill="none" fill-rule="evenodd">
        <g id="Group-2">
            <rect id="Rectangle" fill="#FFFFFF" x="0" y="0" width="603" height="285"></rect>
            <path d="M301.9,7.6 L301.7,7.4 C301.709301,7.50636671 301.793633,7.59069926 301.9,7.6 Z" id="Shape" fill="#C5164A" fill-rule="nonzero"></path>
            <path d="M152.9,202.5 L152.9,212.4 C152.890092,213.413304 152.469423,214.379215 151.734273,215.076666 C150.999122,215.774116 150.012423,216.1434 149,216.1 L73.7,216 C72.6967526,216.014597 71.7317369,215.615561 71.0317808,214.896687 C70.3318246,214.177813 69.9586601,213.202502 70,212.2 L70,200.9 C70.0218788,199.954045 70.4173613,199.055221 71.1,198.4 L124.9,138.4 L70.7,138.4 C69.7129308,138.419225 68.7606098,138.035582 68.062514,137.337486 C67.3644183,136.63939 66.9807748,135.687069 67,134.7 L67.1,124.5 C67.0854034,123.496753 67.4844389,122.531737 68.2033128,121.831781 C68.9221868,121.131825 69.8974984,120.75866 70.9,120.8 L146.1,120.9 C147.103247,120.885403 148.068263,121.284439 148.768219,122.003313 C149.468175,122.722187 149.84134,123.697498 149.8,124.7 L149.8,135.4 C149.820915,136.454635 149.466511,137.482408 148.8,138.3 L95.1,198.6 L149.1,198.6 C151.192583,198.704167 152.850212,200.405418 152.9,202.5" id="Shape" fill="#21201F" fill-rule="nonzero"></path>
            <path d="M243.1,217.4 C216.039381,217.178195 194.282053,195.061739 194.503256,168.001115 C194.72446,140.940491 216.840433,119.182672 243.901062,119.403274 C270.96169,119.623877 292.720001,141.739367 292.5,168.8 C292.394345,181.795744 287.130256,194.217196 277.865864,203.331557 C268.601472,212.445918 256.095737,217.506521 243.1,217.4 M243.7,137.8 C226.828527,137.662501 213.039927,151.227865 212.902051,168.099335 C212.764175,184.970804 226.329232,198.759707 243.200699,198.89796 C260.072165,199.036213 273.861371,185.471463 274,168.6 C274.122043,151.734191 260.565547,137.953991 243.7,137.8" id="Shape" fill="#21201F" fill-rule="nonzero"></path>
            <path d="M403.4,201 L403.4,213.7 C403.307532,214.456027 402.918334,215.144291 402.318127,215.613203 C401.71792,216.082114 400.955935,216.293211 400.2,216.2 L347.6,216.2 C346.935323,216.205382 346.296307,215.943719 345.826294,215.473706 C345.356281,215.003693 345.094618,214.364677 345.1,213.7 L345.1,123.5 C345.1,122.1 346.9,121 348.3,121 L361.1,121 C361.764677,120.994618 362.403693,121.256281 362.873706,121.726294 C363.343719,122.196307 363.605382,122.835323 363.6,123.5 L363.6,198.5 L400.5,198.5 C401.979719,198.423598 403.257546,199.525174 403.4,201" id="Shape" fill="#21201F" fill-rule="nonzero"></path>
            <path d="M539.2,216.2 L525.5,216.2 C524.429283,216.188566 523.458844,215.567486 523,214.6 L514.8,195.4 L470.2,195.4 L461.6,214.7 C461.173757,215.695652 460.182639,216.329967 459.1,216.3 L445.2,216.3 C444.266523,216.290239 443.400752,215.810944 442.896959,215.025027 C442.393165,214.239109 442.319124,213.252295 442.7,212.4 L483.6,122.8 C483.97495,121.837413 484.869767,121.176027 485.9,121.1 L500.2,121.1 C501.267296,121.160916 502.184368,121.878624 502.5,122.9 L541.7,212.4 C542.075204,213.240858 541.996029,214.214954 541.489958,214.984183 C540.983887,215.753411 540.120697,216.211708 539.2,216.2 Z M507,177.7 L492.8,145.3 L478.1,177.7 L507,177.7 Z" id="Shape" fill="#21201F" fill-rule="nonzero"></path>
            <path d="M301.7,47.4 C301.4,47 301.1,46.7 300.8,46.3 L300.6,46.1 C300.392005,45.8121829 300.15766,45.54436 299.9,45.3 C299.8,45.2 299.7,45.1 299.7,45 C299.5,44.7 299.3,44.5 299.1,44.2 C299,44.1 299,44 298.9,43.9 C298.7,43.6 298.4,43.2 298.2,42.9 L298.2,42.8 C298,42.4 297.7,42.1 297.5,41.7 C297.4,41.6 297.4,41.5 297.3,41.4 C297.1,41.1 297,40.9 296.8,40.6 C296.7,40.5 296.7,40.3 296.6,40.2 C296.5,39.9 296.3,39.7 296.2,39.4 C296.1,39.3 296.1,39.2 296,39.1 C295.8,38.7 295.6,38.4 295.4,38 C295.252342,37.624987 295.085454,37.2578333 294.9,36.9 C294.8,36.8 294.8,36.7 294.8,36.5 C294.8,36.3 294.6,36 294.5,35.7 C294.5,35.6 294.4,35.4 294.4,35.3 C294.286702,35.0472059 294.218993,34.7763704 294.2,34.5 C294.2,34.4 294.1,34.2 294.1,34.1 C294,33.8 293.9,33.5 293.8,33.1 C293.8,33 293.8,33 293.7,32.9 C293.584738,32.5096316 293.517575,32.1066495 293.5,31.7 C293.514964,31.5590402 293.479537,31.4173345 293.4,31.3 C293.4,31 293.3,30.8 293.3,30.5 C293.315564,30.3271782 293.280837,30.1535417 293.2,30 C293.2,29.8 293.1,29.5 293.1,29.3 L293.1,24.9 C293.091493,24.6625793 293.125356,24.425542 293.2,24.2 C293.184436,24.0271782 293.219163,23.8535417 293.3,23.7 C293.3,23.5 293.4,23.3 293.4,23 C293.384436,22.8271782 293.419163,22.6535417 293.5,22.5 C293.6,22.1 293.6,21.8 293.7,21.4 C293.7,21.2 293.8,21.1 293.8,20.9 C293.8,20.7 293.9,20.5 293.9,20.3 C293.920713,20.087508 293.989076,19.8824217 294.1,19.7 C294.2,19.5 294.2,19.3 294.3,19.2 C294.4,19.1 294.4,18.8 294.5,18.6 C294.6,18.4 294.6,18.3 294.7,18.1 C294.8,17.9 294.8,17.7 294.9,17.5 C295,17.3 295,17.2 295.1,17 C295.3,16.6 295.4,16.3 295.6,15.9 C295.7,15.8 295.7,15.6 295.8,15.5 L296.1,14.9 C296.2,14.8 296.2,14.6 296.3,14.5 L296.6,13.9 C296.7,13.8 296.7,13.6 296.8,13.5 C296.897563,13.278335 297.03291,13.0753137 297.2,12.9 C297.3,12.8 297.3,12.7 297.4,12.6 C297.7,12.2 298,11.7 298.3,11.3 C298.3,11.2 298.4,11.2 298.4,11.1 C298.536117,10.8764024 298.704614,10.6742069 298.9,10.5 C299,10.4 299.1,10.3 299.1,10.2 C299.3,10 299.4,9.8 299.6,9.6 L299.9,9.3 C300.1,9.1 300.2,8.9 300.4,8.7 L300.6,8.5 L301.9,7.2 C299.843854,5.32911845 297.517793,3.77841139 295,2.6 C294.385259,2.29116661 293.750502,2.02390047 293.1,1.8 C290.000365,0.62461442 286.714973,0.0149539239 283.4,8.00252334e-15 L283.3,8.00252334e-15 C274.573979,-0.0267729231 266.40463,4.28274598 261.5,11.5 C262.283946,12.6309896 262.953886,13.8368817 263.5,15.1 C266.4,21.2 267.4,28.9 267.3,36.7 C267.3,55.1 261.5,74 261.4,74.2 C261.6,74.1 263.8,73.2 267.3,71.5 C276.359607,67.0589761 284.938128,61.6974 292.9,55.5 C296.135565,53.1480059 299.088486,50.4299763 301.7,47.4 Z" id="Shape" fill="#01B4C0" fill-rule="nonzero"></path>
            <path d="M339.9,15.3 C340.485203,14.0565185 341.153378,12.8538043 341.9,11.7 C340.306545,9.30779322 338.310302,7.21004571 336,5.5 C328.634383,0.0962388949 319.024136,-1.18512735 310.5,2.1 C309.849487,2.32387241 309.214728,2.59113932 308.6,2.9 C306.082207,4.07841139 303.756146,5.62911845 301.7,7.5 L301.9,7.7 C302.291264,8.04121499 302.658785,8.40873561 303,8.8 L303.3,9.1 L303.8,9.6 C303.923522,9.71395398 304.02519,9.84951188 304.1,10 C304.3,10.2 304.4,10.4 304.5,10.5 C304.623522,10.613954 304.72519,10.7495119 304.8,10.9 C304.9,11.1 305.1,11.3 305.2,11.5 C305.3,11.7 305.3,11.7 305.4,11.8 C305.7,12.2 305.9,12.5 306.2,12.9 C306.323525,12.9963924 306.397001,13.1433444 306.4,13.3 L306.7,13.9 C306.805275,14.0102572 306.874959,14.1496257 306.9,14.3 L307.2,14.9 C307.305275,15.0102572 307.374959,15.1496257 307.4,15.3 L307.7,15.9 C307.8,16.1 307.8,16.2 307.9,16.4 C308,16.6 308.2,17.1 308.3,17.4 C308.392963,17.5549054 308.460487,17.7237148 308.5,17.9 C308.6,18.1 308.6,18.3 308.7,18.5 C308.8,18.7 308.8,18.9 308.9,19 C309,19.1 309,19.4 309.1,19.6 C309.2,19.8 309.2,20 309.3,20.2 C309.4,20.4 309.4,20.6 309.5,20.7 C309.6,20.8 309.6,21.1 309.7,21.3 C309.8,21.5 309.8,21.6 309.8,21.8 C309.9,22.2 309.9,22.5 310,22.9 C309.984436,23.0728218 310.019163,23.2464583 310.1,23.4 C310.1,23.6 310.2,23.9 310.2,24.1 C310.184436,24.2728218 310.219163,24.4464583 310.3,24.6 C310.283902,24.8377632 310.317972,25.0762549 310.4,25.3 L310.4,29.6 C310.416231,29.8705499 310.382328,30.1417699 310.3,30.4 C310.314964,30.5409598 310.279537,30.6826655 310.2,30.8 C310.2,31.1 310.1,31.3 310.1,31.6 C310.104162,31.7400007 310.069555,31.8784286 310,32 C309.884738,32.3903684 309.817575,32.7933505 309.8,33.2 L309.8,33.4 C309.7,33.7 309.6,34.1 309.5,34.4 C309.5,34.5 309.4,34.7 309.4,34.8 C309.3,35.1 309.2,35.3 309.1,35.6 C309.1,35.7 309,35.9 309,36 C308.9,36.3 308.8,36.5 308.7,36.8 C308.7,36.9 308.6,37 308.6,37.2 C308.452342,37.575013 308.285454,37.9421667 308.1,38.3 C307.9,38.7 307.7,39 307.5,39.4 C307.4,39.5 307.4,39.6 307.3,39.8 C307.2,40 307,40.3 306.9,40.6 C306.8,40.7 306.8,40.9 306.7,41 C306.5,41.3 306.4,41.5 306.2,41.8 C306.1,41.9 306.1,42 306,42.1 C305.8,42.5 305.5,42.8 305.3,43.2 L305.3,43.3 C305.1,43.6 304.8,44 304.6,44.3 C304.5,44.4 304.5,44.5 304.4,44.6 C304.2,44.9 304,45.1 303.8,45.4 C303.7,45.5 303.7,45.6 303.6,45.7 C303.4,46 303.1,46.3 302.9,46.6 C302.9,46.7 302.8,46.7 302.8,46.8 C302.5,47.2 302.2,47.5 301.9,47.9 C304.61272,50.8916031 307.555005,53.6667123 310.7,56.2 C318.637039,62.4328486 327.219411,67.7968313 336.3,72.2 C338.210887,73.2172096 340.181095,74.1188301 342.2,74.9 C341.8,74.2 330.2,36.1 339.9,15.3 Z" id="Shape" fill="#C5E4EA" fill-rule="nonzero"></path>
            <path d="M255.5,37 C255.5,29.2 256.5,21.5 259.3,15.4 C259.885203,14.1565185 260.553378,12.9538043 261.3,11.8 C259.706545,9.40779322 257.710302,7.31004571 255.4,5.6 C247.437966,-0.316231861 236.860638,-1.3547332 227.9,2.9 C214.5,9.2 208.5,24.9 214.7,38.1 C222,53.7 244.6,66.5 255.4,71.8 C257.310887,72.8172096 259.281095,73.7188301 261.3,74.5 C261.3,74.3 255.6,55.4 255.5,37 Z" id="Shape" fill="#336081" fill-rule="nonzero"></path>
            <path d="M267.3,36.9 C267.3,29.1 266.3,21.5 263.5,15.3 C262.914797,14.0565185 262.246622,12.8538043 261.5,11.7 C260.716054,12.8309896 260.046114,14.0368817 259.5,15.3 C256.6,21.5 255.6,29.2 255.7,36.9 L255.7,37 C255.8,55.4 261.5,74.2 261.6,74.4 C261.5,74.3 267.2,55.4 267.3,36.9 Z" id="Shape" fill="#003C57" fill-rule="nonzero"></path>
            <path d="M375.3,2.9 C371.676618,1.1761935 367.712512,0.287687071 363.7,0.3 L363.6,0.3 C354.873979,0.273227077 346.70463,4.58274598 341.8,11.8 C342.58389,12.9310243 343.253827,14.1369107 343.8,15.4 C346.7,21.5 347.7,29.1 347.6,36.9 L347.6,37.2 C347.7,55.5 342,74.3 342,74.5 C342.2,74.4 344.4,73.5 347.9,71.8 C358.7,66.4 381.4,53.7 388.6,38.1 C391.511732,31.6694719 391.745906,24.3448159 389.250877,17.7414302 C386.755847,11.1380444 381.736567,5.7983584 375.3,2.9 Z" id="Shape" fill="#DCDDDE" fill-rule="nonzero"></path>
            <path d="M347.8,36.8 C347.8,29.1 346.8,21.4 344,15.3 C343.414797,14.0565185 342.746622,12.8538043 342,11.7 C341.21611,12.8310243 340.546173,14.0369107 340,15.3 C330.3,36 341.9,74.1 342,74.5 C342.1,74.3 347.8,55.5 347.9,37.1 L347.9,36.8 L347.8,36.8 Z" id="Shape" fill="#AAC6CC" fill-rule="nonzero"></path>
            <path d="M300.4,8.7 L300.2,8.9 C300,9.1 299.9,9.3 299.7,9.5 L299.4,9.8 C299.2,10 299.1,10.2 298.9,10.4 C298.7,10.6 298.7,10.6 298.7,10.7 C298.5,10.9 298.4,11.1 298.2,11.3 C298.2,11.4 298.1,11.4 298.1,11.5 C297.8,11.9 297.5,12.4 297.2,12.8 C297.1,12.9 297.1,13 297,13.1 C296.902437,13.321665 296.76709,13.5246863 296.6,13.7 C296.494725,13.8102572 296.425041,13.9496257 296.4,14.1 L296.1,14.7 C296,14.8 296,15 295.9,15.1 L295.6,15.7 C295.5,15.8 295.5,16 295.4,16.1 C295.2,16.5 295.1,16.8 294.9,17.2 C294.8,17.4 294.8,17.5 294.7,17.7 C294.6,17.9 294.6,18.1 294.5,18.3 C294.4,18.5 294.4,18.6 294.3,18.8 C294.2,19 294.2,19.2 294.1,19.4 C294,19.6 294,19.8 293.9,19.9 C293.8,20 293.8,20.3 293.7,20.5 C293.618556,20.6889467 293.584238,20.8948523 293.6,21.1 C293.6,21.3 293.5,21.4 293.5,21.6 C293.4,22 293.4,22.3 293.3,22.7 C293.3,22.9 293.2,23 293.2,23.2 C293.2,23.4 293.1,23.6 293.1,23.9 C293.115564,24.0728218 293.080837,24.2464583 293,24.4 C293.008507,24.6374207 292.974644,24.874458 292.9,25.1 L292.9,29.5 C292.883902,29.7377632 292.917972,29.9762549 293,30.2 C292.984436,30.3728218 293.019163,30.5464583 293.1,30.7 C293.1,31 293.2,31.2 293.2,31.5 C293.185036,31.6409598 293.220463,31.7826655 293.3,31.9 C293.415262,32.2903684 293.482425,32.6933505 293.5,33.1 C293.5,33.2 293.5,33.2 293.6,33.3 C293.7,33.6 293.8,33.9 293.9,34.3 C293.9,34.4 294,34.6 294,34.7 C294.113298,34.9527941 294.181007,35.2236296 294.2,35.5 C294.2,35.6 294.3,35.8 294.3,35.9 C294.4,36.2 294.5,36.4 294.6,36.7 C294.6,36.8 294.7,36.9 294.7,37.1 C294.847658,37.475013 295.014546,37.8421667 295.2,38.2 C295.4,38.6 295.6,38.9 295.8,39.3 C295.9,39.4 295.9,39.5 296,39.6 C296.1,39.9 296.3,40.1 296.4,40.4 C296.5,40.5 296.5,40.7 296.6,40.8 C296.8,41.1 296.9,41.3 297.1,41.6 C297.2,41.7 297.2,41.8 297.3,41.9 C297.5,42.3 297.8,42.6 298,43 L298,43.1 C298.2,43.4 298.5,43.8 298.7,44.1 C298.8,44.2 298.8,44.3 298.9,44.4 C299.1,44.7 299.3,44.9 299.5,45.2 C299.6,45.3 299.7,45.4 299.7,45.5 C299.907995,45.7878171 300.14234,46.05564 300.4,46.3 L300.6,46.5 C300.9,46.9 301.2,47.2 301.5,47.6 C301.8,47.2 302.1,46.9 302.4,46.5 C302.4,46.4 302.5,46.4 302.5,46.3 C302.7,46 303,45.7 303.2,45.4 C303.3,45.3 303.3,45.2 303.4,45.1 C303.6,44.8 303.8,44.6 304,44.3 C304.1,44.2 304.1,44.1 304.2,44 C304.4,43.7 304.7,43.3 304.9,43 L304.9,42.9 C305.1,42.5 305.4,42.2 305.6,41.8 C305.7,41.7 305.7,41.6 305.8,41.5 C306,41.2 306.1,41 306.3,40.7 C306.4,40.6 306.4,40.4 306.5,40.3 C306.6,40 306.8,39.8 306.9,39.5 C307,39.4 307,39.3 307.1,39.1 C307.3,38.7 307.5,38.4 307.7,38 C307.847658,37.624987 308.014546,37.2578333 308.2,36.9 C308.2,36.8 308.3,36.7 308.3,36.5 C308.3,36.3 308.5,36 308.6,35.7 C308.6,35.6 308.7,35.4 308.7,35.3 C308.8,35 308.9,34.8 309,34.5 C309,34.4 309.1,34.2 309.1,34.1 C309.2,33.8 309.3,33.4 309.4,33.1 L309.4,32.9 C309.515262,32.5096316 309.582425,32.1066495 309.6,31.7 C309.595838,31.5599993 309.630445,31.4215714 309.7,31.3 C309.7,31 309.8,30.8 309.8,30.5 C309.785036,30.3590402 309.820463,30.2173345 309.9,30.1 C309.9,29.8 310,29.6 310,29.3 L310,25 C310.016098,24.7622368 309.982028,24.5237451 309.9,24.3 C309.915564,24.1271782 309.880837,23.9535417 309.8,23.8 C309.8,23.6 309.7,23.3 309.7,23.1 C309.715564,22.9271782 309.680837,22.7535417 309.6,22.6 C309.5,22.2 309.5,21.9 309.4,21.5 C309.4,21.3 309.3,21.2 309.3,21 C309.3,20.8 309.2,20.6 309.1,20.4 C309.096595,20.214509 309.025459,20.0366694 308.9,19.9 C308.8,19.7 308.8,19.5 308.7,19.3 C308.6,19.1 308.6,18.9 308.5,18.7 C308.4,18.5 308.4,18.3 308.3,18.2 C308.2,18.1 308.2,17.8 308.1,17.6 C308,17.4 308,17.2 307.9,17.1 C307.8,16.8 307.6,16.4 307.5,16.1 C307.4,15.8 307.4,15.8 307.3,15.6 L307,15 C306.894725,14.8897428 306.825041,14.7503743 306.8,14.6 L306.5,14 C306.394725,13.8897428 306.325041,13.7503743 306.3,13.6 L306,13 C305.876475,12.9036076 305.802999,12.7566556 305.8,12.6 C305.591412,12.1944218 305.32158,11.8234028 305,11.5 C304.9,11.4 304.9,11.3 304.8,11.2 C304.7,11.1 304.5,10.8 304.4,10.6 C304.276478,10.486046 304.17481,10.3504881 304.1,10.2 C303.992004,10.0145537 303.857217,9.84607002 303.7,9.7 C303.576478,9.58604602 303.47481,9.45048812 303.4,9.3 C303.2,9.1 303.1,8.9 302.9,8.8 L302.6,8.5 C302.258785,8.10873561 301.891264,7.74121499 301.5,7.4 L301.3,7.2 C301.161547,7.7807182 300.847244,8.30455609 300.4,8.7 Z" id="Shape" fill="#1A97A4" fill-rule="nonzero"></path>
            <g id="Group" transform="translate(67.000000, 262.000000)" fill="#21201F" fill-rule="nonzero">
                <path d="M254,20.9 C254.187364,21.1675897 254.213077,21.5163173 254.066989,21.8084944 C253.9209,22.1006715 253.62649,22.289337 253.3,22.3 L250.6,22.3 C250.33403,22.3071418 250.078256,22.1975245 249.9,22 L246.5,17.4 L241.7,17.4 L241.7,21.7 C241.708941,21.8351515 241.659141,21.9675899 241.563365,22.0633653 C241.46759,22.1591407 241.335151,22.208941 241.2,22.2 L238.4,22.2 C238.264849,22.208941 238.13241,22.1591407 238.036635,22.0633653 C237.940859,21.9675899 237.891059,21.8351515 237.9,21.7 L237.9,1.7 C237.891059,1.56484852 237.940859,1.43241012 238.036635,1.3366347 C238.13241,1.24085927 238.264849,1.19105903 238.4,1.2 L246.3,1.2 C248.423075,1.1790862 250.482444,1.92471994 252.1,3.3 C253.689808,4.8788083 254.527099,7.06304394 254.4,9.3 C254.488577,11.5307823 253.65703,13.7000337 252.1,15.3 C251.658141,15.6971857 251.19045,16.0646573 250.7,16.4 L254,20.9 Z M241.7,13.4 L246.4,13.4 C247.511843,13.4820004 248.600679,13.0541601 249.359288,12.2371962 C250.117898,11.4202323 250.464022,10.3027307 250.3,9.2 C250.465496,8.07929168 250.105592,6.94481732 249.324308,6.12446902 C248.543023,5.30412072 247.427444,4.88933665 246.3,5 L241.6,5 L241.6,13.4 L241.7,13.4 Z" id="Shape"></path>
                <path d="M275.8,5 L275.8,9.6 L284.1,9.6 C284.235151,9.59105903 284.36759,9.64085927 284.463365,9.7366347 C284.559141,9.83241012 284.608941,9.96484852 284.6,10.1 L284.6,12.9 C284.608941,13.0351515 284.559141,13.1675899 284.463365,13.2633653 C284.36759,13.3591407 284.235151,13.408941 284.1,13.4 L275.8,13.4 L275.8,18.2 L286.5,18.2 C286.635151,18.191059 286.76759,18.2408593 286.863365,18.3366347 C286.959141,18.4324101 287.008941,18.5648485 287,18.7 L287,21.5 C287.008941,21.6351515 286.959141,21.7675899 286.863365,21.8633653 C286.76759,21.9591407 286.635151,22.008941 286.5,22 L272.4,22 C272.264849,22.008941 272.13241,21.9591407 272.036635,21.8633653 C271.940859,21.7675899 271.891059,21.6351515 271.9,21.5 L271.9,1.5 C271.891059,1.36484852 271.940859,1.23241012 272.036635,1.1366347 C272.13241,1.04085927 272.264849,0.99105903 272.4,1 L286.4,1 C286.535151,0.99105903 286.66759,1.04085927 286.763365,1.1366347 C286.859141,1.23241012 286.908941,1.36484852 286.9,1.5 L286.9,4.3 C286.908941,4.43515148 286.859141,4.56758988 286.763365,4.6633653 C286.66759,4.75914073 286.535151,4.80894097 286.4,4.8 L275.8,4.8 L275.8,5 Z" id="Shape"></path>
                <path d="M320.7,11.3 L320.7,18.3 L320.7,21.4 C320.7,21.9 320.5,22.2 320.2,22.2 L317.4,22.2 C317.1,22.2 316.9,21.9 316.9,21.5 C315.551099,22.1150278 314.082326,22.4224454 312.6,22.4 C309.521886,22.4228136 306.58305,21.1188732 304.534444,18.8213709 C302.485838,16.5238686 301.525929,13.4553846 301.9,10.4 C302.507788,5.35160156 306.540036,1.40249271 311.6,0.9 C314.765473,0.610450594 317.901442,1.70439328 320.2,3.9 C320.598735,4.32050523 320.598735,4.97949477 320.2,5.4 C319.742002,5.8079457 319.307946,6.2420017 318.9,6.7 C318.479495,7.09873494 317.820505,7.09873494 317.4,6.7 C316.145665,5.47092449 314.456085,4.78790293 312.7,4.8 C310.731373,4.78931222 308.854157,5.62983099 307.551018,7.1054446 C306.247879,8.58105821 305.645951,10.5478047 305.9,12.5 C306.278435,15.6065599 308.700239,18.0694109 311.8,18.5 C313.652919,18.7823694 315.539314,18.2744939 317,17.1 L317,14.8 L312.6,14.8 C312.464849,14.808941 312.33241,14.7591407 312.236635,14.6633653 C312.140859,14.5675899 312.091059,14.4351515 312.1,14.3 L312.1,11.3 C312.091059,11.1648485 312.140859,11.0324101 312.236635,10.9366347 C312.33241,10.8408593 312.464849,10.791059 312.6,10.8 L320.3,10.8 C320.546487,10.8312867 320.723583,11.0526569 320.7,11.3 Z" id="Shape"></path>
                <path d="M342.4,22.2 L339.6,22.2 C339.464849,22.208941 339.33241,22.1591407 339.236635,22.0633653 C339.140859,21.9675899 339.091059,21.8351515 339.1,21.7 L339.1,1.7 C339.091059,1.56484852 339.140859,1.43241012 339.236635,1.3366347 C339.33241,1.24085927 339.464849,1.19105903 339.6,1.2 L342.4,1.2 C342.535151,1.19105903 342.66759,1.24085927 342.763365,1.3366347 C342.859141,1.43241012 342.908941,1.56484852 342.9,1.7 L342.9,21.7 C343,22 342.8,22.2 342.4,22.2 Z" id="Shape"></path>
                <path d="M366,6.2 C365.633034,6.69689135 365.593821,7.36351188 365.9,7.9 C366.2,8.7 367.5,9.2 368.6,9.5 L370.2,10 L370.4,10 C372.2,10.5 374.6,11.5 375.6,13.9 C376.425814,15.7380734 376.196472,17.8786001 375,19.5 C373.377872,21.3119249 371.029786,22.3025237 368.6,22.2 C368.097921,22.2165198 367.595443,22.1830214 367.1,22.1 C364.891019,21.8808176 362.90274,20.6657585 361.7,18.8 C361.553648,18.5966533 361.513882,18.3353832 361.593109,18.097703 C361.672336,17.8600228 361.86091,17.6748662 362.1,17.6 L364.2,16.8 C364.563222,16.7042476 364.949467,16.8201213 365.2,17.1 C365.827283,17.8340523 366.734909,18.2697128 367.7,18.3 C369.4,18.5 371.2,18.1 371.9,17.2 C372.266966,16.7031086 372.306179,16.0364881 372,15.5 C371.7,14.7 370.4,14.2 369.3,13.9 L367.7,13.5 L367.6,13.5 C365.8,13 363.2,12 362.2,9.5 C361.374186,7.66192656 361.603528,5.52139988 362.8,3.9 C364.4,1.9 367.5,0.9 370.6,1.3 C372.795058,1.56003572 374.767257,2.7652685 376,4.6 C376.137658,4.80560145 376.172433,5.06333004 376.094189,5.29806288 C376.015944,5.53279572 375.833487,5.71811361 375.6,5.8 L373.4,6.7 C373.066696,6.80452097 372.703931,6.68359913 372.5,6.4 C371.848587,5.68210605 370.961808,5.22098092 370,5.1 C368.56672,4.77931531 367.067762,5.19152858 366,6.2 Z" id="Shape"></path>
                <path d="M408,1.8 L408,4.6 C408.008941,4.73515148 407.959141,4.86758988 407.863365,4.9633653 C407.76759,5.05914073 407.635151,5.10894097 407.5,5.1 L401.4,5.1 L401.4,21.7 C401.408941,21.8351515 401.359141,21.9675899 401.263365,22.0633653 C401.16759,22.1591407 401.035151,22.208941 400.9,22.2 L398.1,22.2 C397.964849,22.208941 397.83241,22.1591407 397.736635,22.0633653 C397.640859,21.9675899 397.591059,21.8351515 397.6,21.7 L397.6,5.1 L391.5,5.1 C391.364849,5.10894097 391.23241,5.05914073 391.136635,4.9633653 C391.040859,4.86758988 390.991059,4.73515148 391,4.6 L391,1.8 C390.991059,1.66484852 391.040859,1.53241012 391.136635,1.4366347 C391.23241,1.34085927 391.364849,1.29105903 391.5,1.3 L407.5,1.3 C407.8,1.2 408,1.5 408,1.8 Z" id="Shape"></path>
                <path d="M440.5,20.9 C440.687364,21.1675897 440.713077,21.5163173 440.566989,21.8084944 C440.4209,22.1006715 440.12649,22.289337 439.8,22.3 L437.1,22.3 C436.83403,22.3071418 436.578256,22.1975245 436.4,22 L433,17.3 L428.2,17.3 L428.2,21.6 C428.208941,21.7351515 428.159141,21.8675899 428.063365,21.9633653 C427.96759,22.0591407 427.835151,22.108941 427.7,22.1 L424.9,22.1 C424.764849,22.108941 424.63241,22.0591407 424.536635,21.9633653 C424.440859,21.8675899 424.391059,21.7351515 424.4,21.6 L424.4,1.6 C424.391059,1.46484852 424.440859,1.33241012 424.536635,1.2366347 C424.63241,1.14085927 424.764849,1.09105903 424.9,1.1 L432.8,1.1 C434.923075,1.0790862 436.982444,1.82471994 438.6,3.2 C440.189808,4.7788083 441.027099,6.96304394 440.9,9.2 C440.988577,11.4307823 440.15703,13.6000337 438.6,15.2 C438.158141,15.5971857 437.69045,15.9646573 437.2,16.3 L440.5,20.9 Z M428.2,13.4 L432.9,13.4 C434.011843,13.4820004 435.100679,13.0541601 435.859288,12.2371962 C436.617898,11.4202323 436.964022,10.3027307 436.8,9.2 C436.965496,8.07929168 436.605592,6.94481732 435.824308,6.12446902 C435.043023,5.30412072 433.927444,4.88933665 432.8,5 L428.1,5 L428.1,13.4 L428.2,13.4 Z" id="Shape"></path>
                <path d="M474.5,2.5 L466.5,14.4 L466.1,15 L466.1,21.8 C466.1,22.1 465.9,22.3 465.5,22.3 L462.7,22.3 C462.564849,22.308941 462.43241,22.2591407 462.336635,22.1633653 C462.240859,22.0675899 462.191059,21.9351515 462.2,21.8 L462.2,15 L461.8,14.4 L453.8,2.5 C453.623783,2.24363206 453.60572,1.91024873 453.753208,1.6363429 C453.900696,1.36243707 454.188968,1.1940028 454.5,1.2 L457.2,1.2 C457.491252,1.18592031 457.764264,1.34192721 457.9,1.6 L464.1,10.9 L470.3,1.6 C470.466866,1.37434699 470.720875,1.22919913 471,1.2 L473.7,1.2 C474.025713,1.16047522 474.344626,1.31421004 474.516583,1.59364094 C474.688541,1.87307184 474.682064,2.22704657 474.5,2.5 Z" id="Shape"></path>
                <path d="M30.6,2.2 L26.2,15.6 L24.2,21.6 C24.0949343,21.8972158 23.8152255,22.0970079 23.5,22.1 L20.8,22.1 C20.4847745,22.0970079 20.2050657,21.8972158 20.1,21.6 L15.2,6.7 L13.3,12.5 L10.4,21.5 C10.2949343,21.7972158 10.0152255,21.9970079 9.7,22 L7.2,22 C6.88477452,21.9970079 6.60506569,21.7972158 6.5,21.5 L4.7,16.3 L0.1,2.3 C0.0325208315,2.07212704 0.0726105171,1.8259213 0.208896259,1.63122738 C0.345182001,1.43653346 0.56279428,1.31459354 0.8,1.3 L3.4,1.3 C3.71522548,1.30299214 3.99493431,1.50278416 4.1,1.8 L6,7.5 L7.9,13.2 L8.6,15.2 L13,1.7 C13.1050657,1.40278416 13.3847745,1.20299214 13.7,1.2 L17.3,1.2 C17.6152255,1.20299214 17.8949343,1.40278416 18,1.7 L22.4,15.2 L23.1,13.2 L26.8,1.7 C26.9050657,1.40278416 27.1847745,1.20299214 27.5,1.2 L30.2,1.2 C30.5071563,1.4343567 30.6607982,1.81846149 30.6,2.2 Z" id="Shape"></path>
                <path d="M47.1,5.1 L47.1,9.7 L55.3,9.7 C55.4351515,9.69105903 55.5675899,9.74085927 55.6633653,9.8366347 C55.7591407,9.93241012 55.808941,10.0648485 55.8,10.2 L55.8,13 C55.808941,13.1351515 55.7591407,13.2675899 55.6633653,13.3633653 C55.5675899,13.4591407 55.4351515,13.508941 55.3,13.5 L47.1,13.5 L47.1,18.3 L57.8,18.3 C57.9351515,18.291059 58.0675899,18.3408593 58.1633653,18.4366347 C58.2591407,18.5324101 58.308941,18.6648485 58.3,18.8 L58.3,21.6 C58.308941,21.7351515 58.2591407,21.8675899 58.1633653,21.9633653 C58.0675899,22.0591407 57.9351515,22.108941 57.8,22.1 L43.7,22.1 C43.5648485,22.108941 43.4324101,22.0591407 43.3366347,21.9633653 C43.2408593,21.8675899 43.191059,21.7351515 43.2,21.6 L43.2,1.7 C43.191059,1.56484852 43.2408593,1.43241012 43.3366347,1.3366347 C43.4324101,1.24085927 43.5648485,1.19105903 43.7,1.2 L57.7,1.2 C57.8351515,1.19105903 57.9675899,1.24085927 58.0633653,1.3366347 C58.1591407,1.43241012 58.208941,1.56484852 58.2,1.7 L58.2,4.5 C58.208941,4.63515148 58.1591407,4.76758988 58.0633653,4.8633653 C57.9675899,4.95914073 57.8351515,5.00894097 57.7,5 L47.1,5 L47.1,5.1 Z" id="Shape"></path>
                <path d="M90.8,11.8 C90.8803825,14.5689187 89.7482093,17.2350039 87.7,19.1 C84.7,21.7 80.1,22.2 76.9,22.2 C76.2981977,22.2225 75.6956066,22.1890227 75.1,22.1 L72.2,22.1 C72.0648485,22.108941 71.9324101,22.0591407 71.8366347,21.9633653 C71.7408593,21.8675899 71.691059,21.7351515 71.7,21.6 L71.7,1.7 C71.691059,1.56484852 71.7408593,1.43241012 71.8366347,1.3366347 C71.9324101,1.24085927 72.0648485,1.19105903 72.2,1.2 L74.8,1.2 C77.6,1 83.9,1.1 87.7,4.5 C89.7482093,6.36499613 90.8803825,9.03108133 90.8,11.8 Z M86.9,11.8 C86.9860305,10.1383186 86.3260108,8.52493723 85.1,7.4 C82.7,5.3 78.3,5 75.5,5.1 L75.5,18.3 C78.3,18.4 82.7,18.2 85.1,16.1 C86.3396198,15.0271617 87.005691,13.4359917 86.9,11.8 Z" id="Shape"></path>
                <path d="M122,11.8 C122.080382,14.5689187 120.948209,17.2350039 118.9,19.1 C115.9,21.7 111.3,22.2 108.1,22.2 C107.498198,22.2225 106.895607,22.1890227 106.3,22.1 L103.4,22.1 C103.264849,22.108941 103.13241,22.0591407 103.036635,21.9633653 C102.940859,21.8675899 102.891059,21.7351515 102.9,21.6 L102.9,1.7 C102.891059,1.56484852 102.940859,1.43241012 103.036635,1.3366347 C103.13241,1.24085927 103.264849,1.19105903 103.4,1.2 L106,1.2 C108.8,1 115.1,1.1 118.9,4.5 C120.948209,6.36499613 122.080382,9.03108133 122,11.8 Z M118.1,11.8 C118.18603,10.1383186 117.526011,8.52493723 116.3,7.4 C113.9,5.3 109.5,5 106.7,5.1 L106.7,18.3 C109.5,18.4 113.9,18.2 116.3,16.1 C117.53962,15.0271617 118.205691,13.4359917 118.1,11.8 Z" id="Shape"></path>
                <path d="M138.6,22.2 L135.8,22.2 C135.664849,22.208941 135.53241,22.1591407 135.436635,22.0633653 C135.340859,21.9675899 135.291059,21.8351515 135.3,21.7 L135.3,1.8 C135.291059,1.66484852 135.340859,1.53241012 135.436635,1.4366347 C135.53241,1.34085927 135.664849,1.29105903 135.8,1.3 L138.6,1.3 C138.735151,1.29105903 138.86759,1.34085927 138.963365,1.4366347 C139.059141,1.53241012 139.108941,1.66484852 139.1,1.8 L139.1,21.7 C139.108941,21.8351515 139.059141,21.9675899 138.963365,22.0633653 C138.86759,22.1591407 138.735151,22.208941 138.6,22.2 Z" id="Shape"></path>
                <path d="M172.9,1.8 L172.9,21.7 C172.908941,21.8351515 172.859141,21.9675899 172.763365,22.0633653 C172.66759,22.1591407 172.535151,22.208941 172.4,22.2 L169.5,22.2 C169.4,22.2 169.3,22.1 169.2,22.1 L169.1,22 L159.1,9.1 L159.1,21.7 C159.108941,21.8351515 159.059141,21.9675899 158.963365,22.0633653 C158.86759,22.1591407 158.735151,22.208941 158.6,22.2 L155.8,22.2 C155.664849,22.208941 155.53241,22.1591407 155.436635,22.0633653 C155.340859,21.9675899 155.291059,21.8351515 155.3,21.7 L155.3,1.8 C155.291059,1.66484852 155.340859,1.53241012 155.436635,1.4366347 C155.53241,1.34085927 155.664849,1.29105903 155.8,1.3 L158.6,1.3 C158.750374,1.32504078 158.889743,1.39472503 159,1.5 L169,14.8 L169,1.9 C168.991059,1.76484852 169.040859,1.63241012 169.136635,1.5366347 C169.23241,1.44085927 169.364849,1.39105903 169.5,1.4 L172.3,1.4 C172.6,1.2 172.9,1.5 172.9,1.8 Z" id="Shape"></path>
                <path d="M204.2,11.3 L204.2,18.3 L204.2,21.4 C204.2,21.9 204,22.2 203.7,22.2 L200.9,22.2 C200.6,22.2 200.4,21.9 200.4,21.5 C199.082736,22.1037561 197.648994,22.4109865 196.2,22.4 C190.474094,22.3812829 185.761892,17.889329 185.469319,12.170872 C185.176747,6.45241504 189.405903,1.50299633 195.1,0.9 C198.237542,0.593975081 201.349633,1.69236019 203.6,3.9 C203.998735,4.32050523 203.998735,4.97949477 203.6,5.4 L202.3,6.7 C201.879495,7.09873494 201.220505,7.09873494 200.8,6.7 C199.545665,5.47092449 197.856085,4.78790293 196.1,4.8 C194.131373,4.78931222 192.254157,5.62983099 190.951018,7.1054446 C189.647879,8.58105821 189.045951,10.5478047 189.3,12.5 C189.667793,15.5749656 192.039265,18.0282116 195.1,18.5 C196.952919,18.7823694 198.839314,18.2744939 200.3,17.1 L200.3,14.8 L196,14.8 C195.864849,14.808941 195.73241,14.7591407 195.636635,14.6633653 C195.540859,14.5675899 195.491059,14.4351515 195.5,14.3 L195.5,11.3 C195.491059,11.1648485 195.540859,11.0324101 195.636635,10.9366347 C195.73241,10.8408593 195.864849,10.791059 196,10.8 L203.7,10.8 C203.967787,10.8191996 204.1808,11.032213 204.2,11.3 Z" id="Shape"></path>
            </g>
        </g>
    </g>
</svg>